<svg fill="none" height="444" viewBox="0 0 444 444" width="444" xmlns="http://www.w3.org/2000/svg"><path d="m222 0c-122.5892 0-222 99.4108-222 222 0 122.627 99.4108 222 222 222 122.627 0 222-99.411 222-222 .038-122.5892-99.373-222-222-222zm17.873 232.46 77.85 77.851c6.359 6.359 5.569 16.744-1.505 22.275-23.893 18.776-54.07 29.989-86.805 29.989-83.006 0-149.192-71.906-139.71-156.83 7.2621-65.02 60.241-117.246 125.336-123.6803 38.53-3.8003 74.314 7.9394 101.744 29.7253 6.81 5.418 7.111 15.691.94 21.824l-77.888 77.888c-5.757 5.832-5.757 15.201.038 20.958z" fill="#69e2dc"/></svg>