<svg fill="none" height="250" viewBox="0 0 1384 250" width="1384" xmlns="http://www.w3.org/2000/svg"><g fill="#89dfdb"><path d="m149.001 134.172c21.242-22.119 64.487 15.834 71.213 21.996.135-.112.094-.083.229-.194-20.86-32.003-58.69-39.752-72.795-31.244-14.252 8.595 8.626 28.639 8.626 28.639-34.031-12.177-40.905 4.645-40.905 4.645-32.849-5.068-34.0249 11.777-34.0249 11.777-27.9045-1.164-31.5969-25.359-31.5969-25.359 35.9537 3.052 44.1322-36.971 44.1322-36.971s8.3786-7.8255 35.8186-19.1496 44.726-38.0174 44.726-38.0174c2.322 20.4492-23.93 49.2062-23.93 49.2062 17.456-2.2577 56.368-21.7721 56.368-21.7721l-17.522 24.4999c6.139-2.3515 14.964-3.1981 23.366-3.3628 4.662-.094 7.826-4.7683 6.191-9.1368-14.287-38.0704-51.017-65.1576-94.073-65.1517-55.3684.0058-100.5295 45.2728-100.4178 100.6293.1117 55.368 45.0318 100.223 100.4288 100.223 31.039 0 58.79-14.087 77.211-36.212 4.774-5.733 5.274-13.947 1.158-20.173-17.95-27.164-54.203-34.872-54.203-34.872z"/><path d="m112.271 105.421s-6.397 10.483-11.706 10.189l-5.0628 8.514c3.0162.088 5.0798-2.046 5.9328-3.134l.441-.617 8.766-3.128c0-.006 5.356-8.149 1.629-11.824z"/><path d="m223.624 106.832-8.972 4.322s7.402 1.387 10.942 4.086c-.829-5.157-1.864-8.161-1.97-8.408z"/><path d="m304.44 173.15v-97.82c0-7.65 6.01-13.85 14.03-13.85 8.01 0 14.03 6.19 14.03 13.85v97.83c0 7.83-6.01 14.03-14.03 14.03-8.02-.01-14.03-6.2-14.03-14.04z"/><path d="m462.38 173.52c0 7.65-6.01 13.66-13.48 13.66-4.19 0-8.2-1.64-12.02-6.38l-30.97-38.44h-10.38v30.79c0 7.83-6.2 14.03-14.21 14.03-7.83 0-13.84-6.19-13.84-14.03v-97.28c0-7.11 6.01-13.48 13.66-13.48h29.86c30.24 0 45.18 18.58 45.18 39.35 0 16.4-8.93 28.42-21.5 34.98l23.5 26.6c2.19 2.55 4.2 5.46 4.2 10.2zm-66.86-54.47h13.12c11.3 0 18.58-5.28 18.58-15.67 0-10.75-7.29-16.21-18.58-16.21h-13.12z"/><path d="m638.87 174.06v-96.55c0-9.11 7.29-16.03 16.4-16.03 4.55 0 10.02 1.46 15.48 8.74l50.83 69.23h.18v-64.85c0-7.29 5.83-13.12 13.66-13.12s13.66 5.83 13.66 13.12v96.37c0 9.11-7.29 16.21-16.4 16.21-4.55 0-10.57-2-15.85-9.29l-50.28-67.77h-.36l.18 63.94c0 7.29-5.83 13.12-13.85 13.12-7.82 0-13.65-5.83-13.65-13.12z"/><path d="m924.13 150.02c0 19.13-13.12 36.25-42.45 36.25h-36.07c-7.65 0-13.48-6.01-13.48-13.84v-96.01c0-7.83 5.83-14.03 13.48-14.03h34.61c27.15 0 39.71 17.31 39.71 33.7 0 10.75-3.82 20.59-13.3 26.78 12.22 6.02 17.5 16.58 17.5 27.15zm-64.31-63.58v26.05h16.94c10.93 0 14.76-6.56 14.76-13.3 0-6.19-3.83-12.75-14.76-12.75zm35.89 62.12c0-6.19-4.01-12.93-15.12-12.93h-20.77v26.6h20.77c11.11-.01 15.12-6.75 15.12-13.67z"/><path d="m1057.83 174.06c0 7.29-5.47 13.12-12.57 13.12-6.56 0-10.75-3.46-12.75-8.74l-6.2-15.85h-52.28l-6.19 16.03c-2.01 5.1-6.74 8.56-12.21 8.56-7.83 0-12.93-6.01-12.93-12.93 0-2.37.55-4.55 1.64-7.29l37.71-91.81c4.01-9.84 11.48-13.66 18.76-13.66 7.29 0 14.57 4.01 18.4 13.66l36.98 92c1.09 2.91 1.64 4.91 1.64 6.91zm-40.62-34.43-16.76-42.81h-.73l-16.76 42.81z"/><path d="m1082.77 174.06v-96.55c0-9.11 7.29-16.03 16.4-16.03 4.55 0 10.02 1.46 15.48 8.74l50.83 69.23h.18v-64.85c0-7.29 5.83-13.12 13.66-13.12s13.66 5.83 13.66 13.12v96.37c0 9.11-7.29 16.21-16.4 16.21-4.55 0-10.57-2-15.85-9.29l-50.28-67.77h-.36l.18 63.94c0 7.29-5.83 13.12-13.85 13.12-7.82 0-13.65-5.83-13.65-13.12z"/><path d="m1329.42 173.7c0 7.47-6.2 13.48-13.66 13.48-4.01 0-8.56-1.64-10.93-5.1l-33.7-48.46-15.13 15.49v24.05c0 7.83-6.38 14.03-14.21 14.03s-13.84-6.19-13.84-14.03v-97.83c0-7.65 6.01-13.85 13.84-13.85s14.21 6.2 14.21 13.85v38.62l45.18-47.91c3.28-3.46 7.11-4.55 10.2-4.55 7.29 0 12.93 5.83 12.93 12.75 0 3.46-1.28 6.74-5.47 10.93l-28.78 29.33 36.07 50.28c1.83 2.54 3.29 5.64 3.29 8.92z"/><path d="m545.72 60.63c-35.71 0-64.49 26.23-64.49 63.76 0 37.71 28.78 63.76 64.49 63.76 35.52 0 64.31-26.05 64.31-63.76 0-37.53-28.78-63.76-64.31-63.76zm-15.34 98.93c-11.66-5.62-20-17.89-20-35.17s8.34-29.55 20-35.17zm21.11 2.98c-1.89.3-3.81.47-5.77.47-2.02 0-4.01-.17-5.96-.5v-76.25c1.95-.32 3.94-.5 5.96-.5 1.96 0 3.89.16 5.77.47zm9.39-2.91v-70.49c11.68 5.59 20 17.89 20 35.25 0 17.35-8.32 29.66-20 35.24z"/></g></svg>