<svg fill="none" height="186" viewBox="0 0 803 186" width="803" xmlns="http://www.w3.org/2000/svg"><g fill="#69e2dc"><path d="m93.4458 0c-51.6011 0-93.4458 41.6416-93.4458 92.9921 0 51.3659 41.8447 92.9919 93.4458 92.9919 51.6172 0 93.4462-41.641 93.4462-92.9919.015-51.3505-41.829-92.9921-93.4462-92.9921zm7.5232 97.3738 32.769 32.6102c2.677 2.664 2.344 7.014-.633 9.331-10.058 7.865-22.76 12.562-36.5391 12.562-34.9392 0-62.7987-30.12-58.8075-65.6938 3.0568-27.2357 25.3571-49.1124 52.7573-51.8076 16.2183-1.5919 31.2803 3.3256 42.8263 12.4514 2.867 2.2697 2.994 6.5725.396 9.1416l-32.785 32.6261c-2.4231 2.443-2.4232 6.3676.016 8.7791z"/><path d="m246.776 92.5823c0-25.6595 14.84-40.6486 38.17-40.6486 14.952 0 26.228 6.0997 32.136 17.2745 1.315 2.3957 2.027 4.9018 2.027 7.2975 0 5.1225-3.5 8.4481-8.758 8.4481-4.435 0-7.175-1.7968-9.361-6.1627-3.563-7.2975-8.869-10.8438-15.822-10.8438-10.944 0-17.913 9.3149-17.913 24.572 0 15.4147 6.905 24.7457 17.96 24.7457 7.286 0 12.592-3.484 15.997-10.891 2.075-4.303 4.546-6.053 8.759-6.053 5.701 0 9.423 3.546 9.423 8.827 0 1.907-.443 3.861-1.267 5.768-4.767 11.175-17.358 18.362-32.531 18.362-24.312 0-38.82-14.989-38.82-40.6957z"/><path d="m328.66 122.497c0-5.611 4.482-10.134 10.136-10.134 5.655 0 10.184 4.523 10.184 10.134s-4.545 10.135-10.184 10.135c-5.638 0-10.136-4.524-10.136-10.135z"/></g><path d="m361.635 122.765v-59.0103c0-6.6513 3.722-10.4655 10.073-10.4655h23.758c19.718 0 30.33 9.6932 30.33 25.9432 0 9.2677-4.276 17.5424-12.322 21.5776l9.693 16.407c1.758 2.885 2.138 4.524 2.138 6.872 0 5.28-4.166 9.095-10.026 9.095-4.878 0-6.953-1.687-10.342-7.787l-11.72-20.978h-11.499v18.362c0 6.588-3.675 10.403-10.026 10.403-6.335-.016-10.057-3.83-10.057-10.419zm31.867-32.0425c7.396 0 11.767-4.3029 11.767-11.1118 0-6.6986-4.656-11.2221-11.831-11.2221h-11.72v22.3339z" fill="#ffb8d2"/><path d="m436.55 122.497c0-5.611 4.482-10.134 10.137-10.134 5.654 0 10.184 4.523 10.184 10.134s-4.546 10.135-10.184 10.135c-5.639 0-10.137-4.524-10.137-10.135z" fill="#ffb8d2"/><path d="m469.525 121.457v-57.7023c0-6.6513 3.722-10.4655 10.073-10.4655h36.191c5.417 0 8.933 2.9474 8.933 8.0698 0 5.1225-3.611 8.0698-8.933 8.0698h-26.181v15.6353h24.961c4.879 0 8.11 2.7267 8.11 7.3606 0 4.6338-3.121 7.3606-8.11 7.3606h-24.961v16.0137h26.181c5.306 0 8.933 2.947 8.933 8.07 0 5.122-3.501 8.069-8.933 8.069h-36.191c-6.351-.015-10.073-3.83-10.073-10.481z" fill="#f4db62"/><path d="m535.745 122.497c0-5.611 4.482-10.134 10.137-10.134 5.654 0 10.184 4.523 10.184 10.134s-4.546 10.135-10.184 10.135c-5.639 0-10.137-4.524-10.137-10.135z" fill="#f4db62"/><path d="m566.36 123.585c0-1.686.555-4.145 1.426-6.541l19.497-53.2891c2.898-8.0068 7.776-11.6635 15.601-11.6635 8.267 0 13.082 3.4833 16.091 11.6635l19.656 53.2891c.934 2.553 1.314 4.413 1.314 6.478 0 5.611-4.213 9.583-10.073 9.583-5.797 0-8.822-2.616-10.564-9.047l-2.677-8.716h-27.052l-2.676 8.385c-1.917 6.651-4.926 9.378-10.295 9.378-6.351.016-10.248-3.578-10.248-9.52zm45.884-23.327-9.25-30.2932h-.443l-8.98 30.2932z" fill="#ffc78a"/><path d="m650.319 122.497c0-5.611 4.482-10.134 10.137-10.134 5.654 0 10.184 4.523 10.184 10.134 0 5.612-4.546 10.135-10.184 10.135-5.639 0-10.137-4.523-10.137-10.135z" fill="#ffc78a"/><path d="m683.294 123.853v-58.79c0-8.2274 4.704-12.9716 13.035-12.9716 7.017 0 10.786 2.8371 13.637 10.1819l16.488 41.5157h.443l16.424-41.5157c2.899-7.3606 6.684-10.1819 13.748-10.1819 8.268 0 12.972 4.6812 12.972 12.9716v58.79c0 5.879-3.231 9.268-8.87 9.268-5.591 0-8.822-3.373-8.822-9.268v-41.0269h-.38l-17.58 43.2649c-1.473 3.704-3.833 5.39-7.666 5.39s-6.351-1.686-7.777-5.39l-17.517-43.2649h-.443v41.0269c0 5.879-3.231 9.268-8.822 9.268-5.639 0-8.87-3.389-8.87-9.268z" fill="#cdc5ff"/><path d="m782.68 122.497c0-5.611 4.482-10.134 10.136-10.134s10.184 4.523 10.184 10.134c0 5.612-4.546 10.135-10.184 10.135s-10.136-4.523-10.136-10.135z" fill="#cdc5ff"/></svg>