<svg width="803" height="186" viewBox="0 0 803 186" fill="none" xmlns="http://www.w3.org/2000/svg">
<path d="M93.4458 0C41.8447 0 0 41.6416 0 92.9921C0 144.358 41.8447 185.984 93.4458 185.984C145.063 185.984 186.892 144.343 186.892 92.9921C186.907 41.6416 145.063 0 93.4458 0ZM100.969 97.3738L133.738 129.984C136.415 132.648 136.082 136.998 133.105 139.315C123.047 147.18 110.345 151.877 96.5659 151.877C61.6267 151.877 33.7672 121.757 37.7584 86.1832C40.8152 58.9475 63.1155 37.0708 90.5157 34.3756C106.734 32.7837 121.796 37.7012 133.342 46.827C136.209 49.0967 136.336 53.3995 133.738 55.9686L100.953 88.5947C98.5299 91.0377 98.5298 94.9623 100.969 97.3738Z" fill="#69E2DC"/>
<path d="M246.776 92.5823C246.776 66.9228 261.616 51.9337 284.946 51.9337C299.898 51.9337 311.174 58.0334 317.082 69.2082C318.397 71.6039 319.109 74.11 319.109 76.5057C319.109 81.6282 315.609 84.9538 310.351 84.9538C305.916 84.9538 303.176 83.157 300.99 78.7911C297.427 71.4936 292.121 67.9473 285.168 67.9473C274.224 67.9473 267.255 77.2622 267.255 92.5193C267.255 107.934 274.16 117.265 285.215 117.265C292.501 117.265 297.807 113.781 301.212 106.374C303.287 102.071 305.758 100.321 309.971 100.321C315.672 100.321 319.394 103.867 319.394 109.148C319.394 111.055 318.951 113.009 318.127 114.916C313.36 126.091 300.769 133.278 285.596 133.278C261.284 133.278 246.776 118.289 246.776 92.5823Z" fill="#69E2DC"/>
<path d="M328.66 122.497C328.66 116.886 333.142 112.363 338.796 112.363C344.451 112.363 348.98 116.886 348.98 122.497C348.98 128.108 344.435 132.632 338.796 132.632C333.158 132.632 328.66 128.108 328.66 122.497Z" fill="#69E2DC"/>
<path d="M361.635 122.765V63.7547C361.635 57.1034 365.357 53.2892 371.708 53.2892H395.466C415.184 53.2892 425.796 62.9824 425.796 79.2324C425.796 88.5001 421.52 96.7748 413.474 100.81L423.167 117.217C424.925 120.102 425.305 121.741 425.305 124.089C425.305 129.369 421.139 133.184 415.279 133.184C410.401 133.184 408.326 131.497 404.937 125.397L393.217 104.419H381.718V122.781C381.718 129.369 378.043 133.184 371.692 133.184C365.357 133.168 361.635 129.354 361.635 122.765ZM393.502 90.7225C400.898 90.7225 405.269 86.4196 405.269 79.6107C405.269 72.9121 400.613 68.3886 393.438 68.3886H381.718V90.7225H393.502Z" fill="#FFB8D2"/>
<path d="M436.55 122.497C436.55 116.886 441.032 112.363 446.687 112.363C452.341 112.363 456.871 116.886 456.871 122.497C456.871 128.108 452.325 132.632 446.687 132.632C441.048 132.632 436.55 128.108 436.55 122.497Z" fill="#FFB8D2"/>
<path d="M469.525 121.457V63.7547C469.525 57.1034 473.247 53.2892 479.598 53.2892H515.789C521.206 53.2892 524.722 56.2366 524.722 61.359C524.722 66.4815 521.111 69.4288 515.789 69.4288H489.608V85.0641H514.569C519.448 85.0641 522.679 87.7908 522.679 92.4247C522.679 97.0585 519.558 99.7853 514.569 99.7853H489.608V115.799H515.789C521.095 115.799 524.722 118.746 524.722 123.869C524.722 128.991 521.221 131.938 515.789 131.938H479.598C473.247 131.923 469.525 128.108 469.525 121.457Z" fill="#F4DB62"/>
<path d="M535.745 122.497C535.745 116.886 540.227 112.363 545.882 112.363C551.536 112.363 556.066 116.886 556.066 122.497C556.066 128.108 551.52 132.632 545.882 132.632C540.243 132.632 535.745 128.108 535.745 122.497Z" fill="#F4DB62"/>
<path d="M566.36 123.585C566.36 121.899 566.915 119.44 567.786 117.044L587.283 63.7549C590.181 55.7481 595.059 52.0914 602.884 52.0914C611.151 52.0914 615.966 55.5747 618.975 63.7549L638.631 117.044C639.565 119.597 639.945 121.457 639.945 123.522C639.945 129.133 635.732 133.105 629.872 133.105C624.075 133.105 621.05 130.489 619.308 124.058L616.631 115.342H589.579L586.903 123.727C584.986 130.378 581.977 133.105 576.608 133.105C570.257 133.121 566.36 129.527 566.36 123.585ZM612.244 100.258L602.994 69.9648H602.551L593.571 100.258H612.244Z" fill="#FFC78A"/>
<path d="M650.319 122.497C650.319 116.886 654.801 112.363 660.456 112.363C666.11 112.363 670.64 116.886 670.64 122.497C670.64 128.109 666.094 132.632 660.456 132.632C654.817 132.632 650.319 128.109 650.319 122.497Z" fill="#FFC78A"/>
<path d="M683.294 123.853V65.063C683.294 56.8356 687.998 52.0914 696.329 52.0914C703.346 52.0914 707.115 54.9285 709.966 62.2733L726.454 103.789H726.897L743.321 62.2733C746.22 54.9127 750.005 52.0914 757.069 52.0914C765.337 52.0914 770.041 56.7726 770.041 65.063V123.853C770.041 129.732 766.81 133.121 761.171 133.121C755.58 133.121 752.349 129.748 752.349 123.853V82.8261H751.969L734.389 126.091C732.916 129.795 730.556 131.481 726.723 131.481C722.89 131.481 720.372 129.795 718.946 126.091L701.429 82.8261H700.986V123.853C700.986 129.732 697.755 133.121 692.164 133.121C686.525 133.121 683.294 129.732 683.294 123.853Z" fill="#CDC5FF"/>
<path d="M782.68 122.497C782.68 116.886 787.162 112.363 792.816 112.363C798.47 112.363 803 116.886 803 122.497C803 128.109 798.454 132.632 792.816 132.632C787.178 132.632 782.68 128.109 782.68 122.497Z" fill="#CDC5FF"/>
</svg>
